<svg width="720" height="720" xmlns="http://www.w3.org/2000/svg" xmlns:xlink="http://www.w3.org/1999/xlink" overflow="hidden"><defs><clipPath id="clip0"><rect x="0" y="0" width="720" height="720"/></clipPath></defs><g clip-path="url(#clip0)"><rect x="0" y="0" width="720" height="720" fill="#FFFFFF" fill-opacity="0"/><path d="M0 9.43146C0 4.22261 4.22261-3.84327e-15 9.43146-5.12436e-15L151.569 0C156.777-2.56218e-15 161 4.22261 161 9.43146L161 151.569C161 156.777 156.777 161 151.569 161L9.43146 161C4.22261 161-1.28109e-15 156.777 0 151.569Z" fill="#70AD47" fill-rule="evenodd"/><path d="M186 9.43146C186 4.22261 190.223-3.84327e-15 195.431-5.12436e-15L337.569 0C342.777-2.56218e-15 347 4.22261 347 9.43146L347 151.569C347 156.777 342.777 161 337.569 161L195.431 161C190.223 161 186 156.777 186 151.569Z" fill="#70AD47" fill-rule="evenodd"/><path d="M373 9.43146C373 4.22261 377.223-3.84327e-15 382.431-5.12436e-15L524.569 0C529.777-2.56218e-15 534 4.22261 534 9.43146L534 151.569C534 156.777 529.777 161 524.569 161L382.431 161C377.223 161 373 156.777 373 151.569Z" fill="#70AD47" fill-rule="evenodd"/><path d="M559 9.43146C559 4.22261 563.223-3.84327e-15 568.431-5.12436e-15L710.569 0C715.777-2.56218e-15 720 4.22261 720 9.43146L720 151.569C720 156.777 715.777 161 710.569 161L568.431 161C563.223 161 559 156.777 559 151.569Z" fill="#A6A6A6" fill-rule="evenodd"/><path d="M0 195.431C0 190.223 4.22261 186 9.43146 186L151.569 186C156.777 186 161 190.223 161 195.431L161 337.569C161 342.777 156.777 347 151.569 347L9.43146 347C4.22261 347-1.28109e-15 342.777 0 337.569Z" fill="#A6A6A6" fill-rule="evenodd"/><path d="M186 195.431C186 190.223 190.223 186 195.431 186L337.569 186C342.777 186 347 190.223 347 195.431L347 337.569C347 342.777 342.777 347 337.569 347L195.431 347C190.223 347 186 342.777 186 337.569Z" fill="#70AD47" fill-rule="evenodd"/><path d="M373 195.431C373 190.223 377.223 186 382.431 186L524.569 186C529.777 186 534 190.223 534 195.431L534 337.569C534 342.777 529.777 347 524.569 347L382.431 347C377.223 347 373 342.777 373 337.569Z" fill="#70AD47" fill-rule="evenodd"/><path d="M559 195.431C559 190.223 563.223 186 568.431 186L710.569 186C715.777 186 720 190.223 720 195.431L720 337.569C720 342.777 715.777 347 710.569 347L568.431 347C563.223 347 559 342.777 559 337.569Z" fill="#70AD47" fill-rule="evenodd"/><path d="M0 382.431C0 377.223 4.22261 373 9.43146 373L151.569 373C156.777 373 161 377.223 161 382.431L161 524.569C161 529.777 156.777 534 151.569 534L9.43146 534C4.22261 534-1.28109e-15 529.777 0 524.569Z" fill="#70AD47" fill-rule="evenodd"/><path d="M186 382.431C186 377.223 190.223 373 195.431 373L337.569 373C342.777 373 347 377.223 347 382.431L347 524.569C347 529.777 342.777 534 337.569 534L195.431 534C190.223 534 186 529.777 186 524.569Z" fill="#A6A6A6" fill-rule="evenodd"/><path d="M373 382.431C373 377.223 377.223 373 382.431 373L524.569 373C529.777 373 534 377.223 534 382.431L534 524.569C534 529.777 529.777 534 524.569 534L382.431 534C377.223 534 373 529.777 373 524.569Z" fill="#FFC000" fill-rule="evenodd"/><path d="M559 382.431C559 377.223 563.223 373 568.431 373L710.569 373C715.777 373 720 377.223 720 382.431L720 524.569C720 529.777 715.777 534 710.569 534L568.431 534C563.223 534 559 529.777 559 524.569Z" fill="#A6A6A6" fill-rule="evenodd"/><path d="M0 568.431C0 563.223 4.22261 559 9.43146 559L151.569 559C156.777 559 161 563.223 161 568.431L161 710.569C161 715.777 156.777 720 151.569 720L9.43146 720C4.22261 720-1.28109e-15 715.777 0 710.569Z" fill="#A6A6A6" fill-rule="evenodd"/><path d="M186 568.431C186 563.223 190.223 559 195.431 559L337.569 559C342.777 559 347 563.223 347 568.431L347 710.569C347 715.777 342.777 720 337.569 720L195.431 720C190.223 720 186 715.777 186 710.569Z" fill="#70AD47" fill-rule="evenodd"/><path d="M373 568.431C373 563.223 377.223 559 382.431 559L524.569 559C529.777 559 534 563.223 534 568.431L534 710.569C534 715.777 529.777 720 524.569 720L382.431 720C377.223 720 373 715.777 373 710.569Z" fill="#70AD47" fill-rule="evenodd"/><path d="M559 568.431C559 563.223 563.223 559 568.431 559L710.569 559C715.777 559 720 563.223 720 568.431L720 710.569C720 715.777 715.777 720 710.569 720L568.431 720C563.223 720 559 715.777 559 710.569Z" fill="#70AD47" fill-rule="evenodd"/></g></svg>